<svg width="55" height="55" viewBox="0 0 55 55" fill="none" xmlns="http://www.w3.org/2000/svg">
<path d="M13.1771 37.2396V23.4896C13.1771 23.0026 13.3419 22.5943 13.6715 22.2647C14.0011 21.9355 14.4094 21.7709 14.8964 21.7709C15.3838 21.7709 15.7921 21.9355 16.1213 22.2647C16.4502 22.5943 16.6146 23.0026 16.6146 23.4896V37.2396C16.6146 37.7266 16.4498 38.1349 16.1202 38.4645C15.7905 38.7937 15.3822 38.9584 14.8953 38.9584C14.4079 38.9584 13.9998 38.7937 13.6709 38.4645C13.3417 38.1349 13.1771 37.7266 13.1771 37.2396ZM25.7812 37.2396V23.4896C25.7812 23.0026 25.9461 22.5943 26.2757 22.2647C26.6053 21.9355 27.0136 21.7709 27.5006 21.7709C27.9879 21.7709 28.396 21.9355 28.7249 22.2647C29.0541 22.5943 29.2187 23.0026 29.2187 23.4896V37.2396C29.2187 37.7266 29.0539 38.1349 28.7243 38.4645C28.3947 38.7937 27.9864 38.9584 27.4994 38.9584C27.0121 38.9584 26.604 38.7937 26.2751 38.4645C25.9459 38.1349 25.7812 37.7266 25.7812 37.2396ZM8.06494 46.9792C7.57796 46.9792 7.16985 46.8144 6.84062 46.4848C6.511 46.1552 6.34619 45.7469 6.34619 45.2599C6.34619 44.7725 6.511 44.3644 6.84062 44.0356C7.16985 43.7063 7.57796 43.5417 8.06494 43.5417H46.935C47.422 43.5417 47.8301 43.7065 48.1594 44.0361C48.489 44.3657 48.6538 44.774 48.6538 45.261C48.6538 45.7484 48.489 46.1565 48.1594 46.4853C47.8301 46.8146 47.422 46.9792 46.935 46.9792H8.06494ZM38.3854 37.2396V23.4896C38.3854 23.0026 38.5502 22.5943 38.8798 22.2647C39.2095 21.9355 39.6178 21.7709 40.1047 21.7709C40.5921 21.7709 41.0002 21.9355 41.3291 22.2647C41.6583 22.5943 41.8229 23.0026 41.8229 23.4896V37.2396C41.8229 37.7266 41.6581 38.1349 41.3285 38.4645C40.9989 38.7937 40.5906 38.9584 40.1036 38.9584C39.6162 38.9584 39.2079 38.7937 38.8787 38.4645C38.5498 38.1349 38.3854 37.7266 38.3854 37.2396ZM47.0233 17.1875H7.814C7.40609 17.1875 7.05947 17.0451 6.77416 16.7601C6.48885 16.4756 6.34619 16.1297 6.34619 15.7226V14.8277C6.34619 14.5294 6.42086 14.2722 6.5702 14.056C6.71992 13.8402 6.91701 13.6647 7.16145 13.5295L25.6798 4.46878C26.252 4.19264 26.8578 4.05457 27.4971 4.05457C28.1365 4.05457 28.7442 4.19264 29.3202 4.46878L47.7457 13.4722C48.0337 13.6192 48.257 13.8249 48.4155 14.0892C48.5744 14.3539 48.6538 14.6381 48.6538 14.9417V15.5627C48.6538 16.0318 48.5003 16.4198 48.1932 16.7269C47.8861 17.034 47.4961 17.1875 47.0233 17.1875ZM14.4724 13.75H40.5275L27.8088 7.58029C27.7057 7.53599 27.6027 7.51384 27.5 7.51384C27.3973 7.51384 27.2943 7.53599 27.1912 7.58029L14.4724 13.75Z" fill="#FFB0B8"/>
</svg>
