<svg width="55" height="55" viewBox="0 0 55 55" fill="none" xmlns="http://www.w3.org/2000/svg">
<path d="M42.8364 29.2188H37.989C37.502 29.2188 37.0937 29.054 36.7641 28.7243C36.4348 28.3947 36.2702 27.9864 36.2702 27.4994C36.2702 27.0121 36.4348 26.604 36.7641 26.2751C37.0937 25.9459 37.502 25.7813 37.989 25.7813H42.8364C43.3234 25.7813 43.7317 25.9461 44.0613 26.2757C44.3906 26.6053 44.5552 27.0136 44.5552 27.5006C44.5552 27.988 44.3906 28.3961 44.0613 28.7249C43.7317 29.0542 43.3234 29.2188 42.8364 29.2188ZM33.3042 38.3018C33.598 37.8992 33.9732 37.667 34.43 37.6051C34.8868 37.5436 35.3165 37.6597 35.7191 37.9535L39.584 40.8576C39.9865 41.1517 40.2188 41.5271 40.2806 41.9839C40.3421 42.4407 40.226 42.8704 39.9323 43.273C39.6386 43.6752 39.2633 43.9072 38.8065 43.9691C38.3493 44.031 37.9197 43.9148 37.5175 43.6207L33.652 40.7166C33.2498 40.4229 33.0178 40.0477 32.9559 39.5909C32.8944 39.134 33.0105 38.7044 33.3042 38.3018ZM39.4958 14.0542L35.6309 16.9584C35.2283 17.2521 34.7986 17.3682 34.3418 17.3067C33.885 17.2448 33.5097 17.0126 33.216 16.61C32.9223 16.2078 32.8062 15.7781 32.8677 15.321C32.9296 14.8641 33.1618 14.4889 33.5643 14.1952L37.4292 11.2911C37.8318 10.9973 38.2615 10.8812 38.7183 10.9427C39.1751 11.0046 39.5504 11.2366 39.8441 11.6388C40.1378 12.0414 40.2539 12.4711 40.1924 12.9279C40.1305 13.3851 39.8983 13.7605 39.4958 14.0542ZM16.6587 33.2292H10.2243C9.63763 33.2292 9.14568 33.0306 8.74846 32.6334C8.35162 32.2365 8.1532 31.7446 8.1532 31.1575V23.8425C8.1532 23.2555 8.35162 22.7635 8.74846 22.3667C9.14568 21.9695 9.63763 21.7709 10.2243 21.7709H16.6587L23.516 14.9136C24.0656 14.3644 24.6981 14.2404 25.4135 14.5418C26.1288 14.8431 26.4865 15.3813 26.4865 16.1563V38.8438C26.4865 39.6187 26.1288 40.1569 25.4135 40.4582C24.6981 40.7596 24.0656 40.6357 23.516 40.0864L16.6587 33.2292ZM23.049 20.2813L18.1219 25.2084H11.5907V29.7917H18.1219L23.049 34.7188V20.2813Z" fill="#FFB0B8"/>
</svg>
