<svg width="55" height="55" viewBox="0 0 55 55" fill="none" xmlns="http://www.w3.org/2000/svg">
<path d="M11.4375 43.6315H41.7574V39.8198C41.7574 39.614 41.6913 39.445 41.5592 39.3128C41.427 39.1807 41.2582 39.1146 41.0527 39.1146H12.1422C11.9367 39.1146 11.7679 39.1807 11.6357 39.3128C11.5036 39.445 11.4375 39.614 11.4375 39.8198V43.6315ZM18.2947 35.6771H34.9002L33.4501 25.6069H19.7448L18.2947 35.6771ZM10.0636 47.069C9.47813 47.069 8.98771 46.8705 8.5924 46.4737C8.19747 46.0765 8 45.5845 8 44.9979V39.8198C8 38.6805 8.40563 37.7052 9.21688 36.894C10.0281 36.0827 11.0032 35.6771 12.1422 35.6771H14.8572L16.2718 25.6069H12.0104C11.5234 25.6069 11.1151 25.4421 10.7855 25.1125C10.4563 24.7829 10.2917 24.3746 10.2917 23.8876C10.2917 23.4002 10.4563 22.9921 10.7855 22.6633C11.1151 22.334 11.5234 22.1694 12.0104 22.1694H41.1845C41.6715 22.1694 42.0798 22.3342 42.4094 22.6639C42.7386 22.9935 42.9032 23.4018 42.9032 23.8888C42.9032 24.3761 42.7386 24.7842 42.4094 25.1131C42.0798 25.4423 41.6715 25.6069 41.1845 25.6069H36.9231L38.3377 35.6771H41.0475C42.1938 35.6771 43.1715 36.0827 43.9809 36.894C44.7902 37.7052 45.1949 38.6805 45.1949 39.8198V44.9979C45.1949 45.5845 44.9969 46.0765 44.6008 46.4737C44.2047 46.8705 43.7139 47.069 43.1284 47.069H10.0636ZM26.6032 6C26.8461 6 27.0873 6.03667 27.3268 6.11C27.5662 6.18371 27.7977 6.29391 28.0211 6.44057C28.8114 7.01082 29.67 7.47354 30.597 7.82875C31.524 8.18434 32.5044 8.36213 33.5383 8.36213C34.2377 8.36213 34.8952 8.28059 35.5109 8.1175C36.1262 7.95441 36.7493 7.72104 37.3803 7.4174C37.7306 7.26576 38.0688 7.19949 38.3949 7.21859C38.7211 7.23769 39.015 7.34272 39.2767 7.5337C39.5379 7.72467 39.7318 7.96415 39.8582 8.25214C39.9846 8.54012 40.0096 8.86038 39.9332 9.21291L37.0509 22.1694H33.5211L35.9314 11.4868C35.711 11.5602 35.399 11.6306 34.9953 11.6982C34.5912 11.7658 34.0761 11.7996 33.4501 11.7996C32.2313 11.7996 31.0379 11.6262 29.8699 11.2794C28.702 10.933 27.6111 10.4365 26.5974 9.78984C25.6074 10.4365 24.5378 10.933 23.3885 11.2794C22.2393 11.6262 21.0642 11.7996 19.8634 11.7996C19.2053 11.7996 18.6662 11.7733 18.246 11.7206C17.8259 11.6675 17.5056 11.6043 17.2853 11.5309L19.6737 22.1694H16.144L13.284 9.21291C13.2076 8.8367 13.2326 8.50842 13.3591 8.22807C13.4851 7.94734 13.6789 7.71149 13.9406 7.52052C14.2022 7.32955 14.4982 7.22088 14.8286 7.19453C15.159 7.16818 15.4888 7.24743 15.818 7.43229C16.4173 7.72601 17.0301 7.95441 17.6565 8.1175C18.2829 8.28059 18.9421 8.36213 19.6342 8.36213C20.683 8.36213 21.6709 8.18434 22.5979 7.82875C23.5249 7.47354 24.3835 7.01082 25.1737 6.44057C25.3972 6.29391 25.6306 6.18371 25.8739 6.11C26.1168 6.03667 26.3599 6 26.6032 6Z" fill="#FFB0B8"/>
</svg>
