<svg width="55" height="55" viewBox="0 0 55 55" fill="none" xmlns="http://www.w3.org/2000/svg">
<path d="M27.8438 37.451C29.1481 37.451 30.319 37.1256 31.3563 36.4747C32.3933 35.8243 32.9118 34.7806 32.9118 33.3438C32.9118 32.1479 32.4661 31.1953 31.5746 30.486C30.6828 29.7764 29.019 28.9749 26.5833 28.0815C24.2271 27.2355 22.5275 26.2881 21.4844 25.2393C20.4413 24.1905 19.9198 22.8051 19.9198 21.0833C19.9198 19.6056 20.4531 18.2526 21.5199 17.0242C22.5863 15.7963 24.0772 15.0133 25.9927 14.6753V13.4635C25.9927 13.0465 26.1493 12.6815 26.4625 12.3687C26.7753 12.0555 27.1402 11.8989 27.5573 11.8989C27.9744 11.8989 28.3393 12.0555 28.6521 12.3687C28.9653 12.6815 29.1219 13.0465 29.1219 13.4635V14.6753C30.2002 14.7517 31.2035 15.1021 32.132 15.7266C33.0602 16.351 33.8181 17.126 34.4059 18.0515C34.6145 18.3685 34.6336 18.7071 34.4632 19.0672C34.2929 19.427 34.0064 19.6805 33.6039 19.8275C33.225 19.9742 32.8423 19.9933 32.4557 19.8848C32.0696 19.7759 31.753 19.5556 31.5058 19.2236C31.0655 18.6916 30.5256 18.2604 29.8862 17.93C29.2472 17.5996 28.49 17.4344 27.6146 17.4344C26.1896 17.4344 25.0724 17.7723 24.263 18.4479C23.4537 19.1236 23.049 20.002 23.049 21.0833C23.049 22.1646 23.4441 23.0064 24.2344 23.6088C25.0246 24.2111 26.6244 24.9236 29.0337 25.7463C31.7837 26.7394 33.6317 27.8527 34.5778 29.0864C35.5239 30.3205 35.9969 31.7396 35.9969 33.3438C35.9969 34.4369 35.7949 35.3961 35.3908 36.2215C34.9867 37.0473 34.4587 37.7415 33.8067 38.3041C33.1543 38.8667 32.4116 39.3111 31.5786 39.6372C30.7456 39.963 29.8885 40.1922 29.0074 40.3247V41.5365C29.0074 41.9535 28.8508 42.3185 28.5376 42.6313C28.2248 42.9445 27.8598 43.1011 27.4427 43.1011C27.0256 43.1011 26.6607 42.9445 26.3479 42.6313C26.0347 42.3185 25.8781 41.9535 25.8781 41.5365V40.2102C24.471 39.9046 23.2518 39.3573 22.2206 38.5682C21.1893 37.7795 20.3535 36.7505 19.7129 35.4813C19.5277 35.0787 19.5262 34.6806 19.7083 34.2868C19.8905 33.893 20.1829 33.6228 20.5855 33.4761C20.9644 33.329 21.3507 33.3311 21.7445 33.4824C22.1383 33.634 22.4394 33.8874 22.648 34.2427C23.2415 35.2945 23.9856 36.0922 24.8801 36.6357C25.7746 37.1792 26.7625 37.451 27.8438 37.451ZM27.5 51.5625C23.0313 51.5625 18.976 50.4562 15.3341 48.2436C11.6927 46.0314 8.8363 43.0669 6.76501 39.3502V44.4669C6.76501 44.9547 6.6004 45.3632 6.27116 45.6924C5.94231 46.0212 5.53401 46.1857 5.04626 46.1857C4.55852 46.1857 4.15003 46.0212 3.8208 45.6924C3.49194 45.3632 3.32751 44.9547 3.32751 44.4669V35.6532C3.32751 35.0623 3.52498 34.5694 3.91991 34.1745C4.31522 33.7792 4.80812 33.5815 5.39861 33.5815H14.2129C14.7007 33.5815 15.109 33.7461 15.4378 34.0754C15.7671 34.4042 15.9317 34.8125 15.9317 35.3003C15.9317 35.788 15.7671 36.1965 15.4378 36.5257C15.109 36.8546 14.7007 37.019 14.2129 37.019H9.4222C11.0791 40.3568 13.5279 43.0423 16.7687 45.0754C20.0095 47.1085 23.5866 48.125 27.5 48.125C32.8266 48.125 37.4246 46.3665 41.2941 42.8496C45.1636 39.333 47.3951 34.9437 47.9887 29.6817C48.0502 29.2027 48.2512 28.8148 48.5919 28.5181C48.933 28.2213 49.3428 28.0729 49.8214 28.0729C50.3092 28.0729 50.7198 28.2368 51.0532 28.5645C51.3866 28.8918 51.5226 29.2833 51.4611 29.739C51.1788 32.809 50.3605 35.6669 49.0062 38.3127C47.6518 40.9584 45.903 43.2632 43.76 45.2272C41.6165 47.1911 39.1573 48.738 36.3825 49.8678C33.6073 50.9976 30.6465 51.5625 27.5 51.5625ZM27.5 6.875C22.2616 6.875 17.6894 8.60769 13.7832 12.0731C9.8771 15.5385 7.61981 19.9463 7.01137 25.2966C6.94988 25.7755 6.74878 26.167 6.40809 26.471C6.06701 26.7751 5.65718 26.9271 5.17861 26.9271C4.67597 26.9271 4.26156 26.7632 3.93538 26.4355C3.60958 26.1082 3.47743 25.7094 3.53892 25.2393C3.85021 22.1104 4.69411 19.2193 6.07064 16.5659C7.44717 13.9129 9.20717 11.6155 11.3506 9.6737C13.4937 7.73151 15.9454 6.2066 18.7057 5.09896C21.4661 3.99132 24.3975 3.4375 27.5 3.4375C31.9248 3.4375 35.9801 4.54743 39.6659 6.76729C43.3517 8.98677 46.208 11.977 48.235 15.738V10.5331C48.235 10.0453 48.3996 9.63684 48.7289 9.30761C49.0577 8.97875 49.466 8.81432 49.9538 8.81432C50.4415 8.81432 50.85 8.97875 51.1792 9.30761C51.5081 9.63684 51.6725 10.0453 51.6725 10.5331V19.3468C51.6725 19.9377 51.475 20.4306 51.0801 20.8255C50.6848 21.2208 50.1919 21.4185 49.6014 21.4185H40.7871C40.2994 21.4185 39.8911 21.2539 39.5622 20.9246C39.233 20.5958 39.0683 20.1875 39.0683 19.6997C39.0683 19.212 39.233 18.8035 39.5622 18.4743C39.8911 18.1454 40.2994 17.981 40.7871 17.981H45.5778C43.9649 14.702 41.5344 12.0313 38.2863 9.96875C35.0383 7.90625 31.4428 6.875 27.5 6.875Z" fill="#FFB0B8"/>
</svg>
