<svg width="55" height="55" viewBox="0 0 55 55" fill="none" xmlns="http://www.w3.org/2000/svg">
<path d="M12.3841 46.9792C11.7933 46.9792 11.3004 46.7816 10.9054 46.3862C10.5101 45.9913 10.3125 45.4984 10.3125 44.9075V40.959C10.3125 40.4067 10.4198 39.8758 10.6345 39.3663C10.8487 38.8564 11.144 38.4133 11.5202 38.0371L40.5493 9.04353C40.9049 8.68794 41.2956 8.4286 41.7215 8.26551C42.1477 8.10242 42.5738 8.02087 42.9997 8.02087C43.4492 8.02087 43.8848 8.10242 44.3065 8.26551C44.7278 8.4286 45.0971 8.68794 45.4145 9.04353L48.2482 11.8772C48.6037 12.1946 48.8631 12.5639 49.0262 12.9852C49.1893 13.4069 49.2708 13.8425 49.2708 14.292C49.2708 14.7179 49.1893 15.1439 49.0262 15.5702C48.8631 15.9961 48.6037 16.3868 48.2482 16.7424L19.2546 45.7715C18.8783 46.1477 18.4353 46.443 17.9254 46.6572C17.4159 46.8719 16.885 46.9792 16.3327 46.9792H12.3841ZM13.75 43.5417H16.5836L39.9369 20.224L38.5309 18.7608L37.0677 17.3548L13.75 40.7081V43.5417ZM38.5309 18.7608L37.0677 17.3548L39.9369 20.224L38.5309 18.7608ZM32.3921 46.9792C35.0715 46.9792 37.5554 46.324 39.844 45.0135C42.1327 43.7031 43.277 41.8757 43.277 39.5313C43.277 38.3385 42.9422 37.2786 42.2726 36.3516C41.6027 35.4246 40.6757 34.6012 39.4917 33.8812C39.0891 33.6169 38.6594 33.5067 38.2026 33.5506C37.7458 33.5949 37.3734 33.7949 37.0854 34.1505C36.7975 34.5057 36.6754 34.9294 36.7194 35.4218C36.7637 35.9137 36.9871 36.292 37.3897 36.5567C38.1448 37.0059 38.7419 37.4722 39.1812 37.9558C39.6204 38.4389 39.84 38.9641 39.84 39.5313C39.84 40.6152 39.0952 41.5546 37.6057 42.3495C36.1161 43.1443 34.3782 43.5417 32.3921 43.5417C31.9044 43.5417 31.4959 43.7063 31.1666 44.0356C30.8378 44.3644 30.6734 44.7727 30.6734 45.2605C30.6734 45.7482 30.8378 46.1565 31.1666 46.4854C31.4959 46.8146 31.9044 46.9792 32.3921 46.9792ZM21.7708 14.323C21.7708 14.9898 21.3925 15.5944 20.6359 16.1368C19.8796 16.6788 18.2762 17.5036 15.8257 18.6112C12.8728 19.9037 10.8338 21.0612 9.70863 22.0837C8.58342 23.1062 8.02081 24.3387 8.02081 25.7813C8.02081 26.7304 8.26468 27.5612 8.75243 28.2735C9.24017 28.9858 9.84689 29.5992 10.5726 30.1137C10.9515 30.4162 11.3657 30.5352 11.8152 30.4706C12.2648 30.4057 12.6408 30.1838 12.9433 29.8049C13.2462 29.426 13.3711 29.0081 13.318 28.5513C13.2653 28.0945 13.0493 27.7147 12.67 27.4118C12.2705 27.1475 11.9688 26.8794 11.7648 26.6074C11.5605 26.3359 11.4583 26.0605 11.4583 25.7813C11.4583 25.2053 11.8425 24.6368 12.611 24.0757C13.3791 23.5146 14.9075 22.742 17.1961 21.7577C20.3811 20.3945 22.5127 19.1612 23.591 18.0578C24.6692 16.9547 25.2083 15.7098 25.2083 14.323C25.2083 12.4426 24.4158 10.9223 22.8307 9.76197C21.2456 8.60124 19.1736 8.02087 16.6146 8.02087C15.0429 8.02087 13.5974 8.30447 12.2782 8.87165C10.9589 9.43846 9.97312 10.1319 9.32076 10.9519C9.00375 11.3308 8.87236 11.7487 8.92659 12.2055C8.98083 12.6623 9.19758 13.0375 9.57685 13.3312C9.95574 13.6341 10.37 13.7583 10.8195 13.7036C11.2691 13.6494 11.6523 13.4636 11.9694 13.1462C12.5484 12.5675 13.2139 12.1415 13.966 11.868C14.718 11.5949 15.6009 11.4584 16.6146 11.4584C18.2982 11.4584 19.5785 11.7425 20.4554 12.3109C21.3323 12.8796 21.7708 13.5503 21.7708 14.323Z" fill="#FFB0B8"/>
</svg>
