<svg width="55" height="55" viewBox="0 0 55 55" fill="none" xmlns="http://www.w3.org/2000/svg">
<path d="M17.0317 51.125C15.874 51.125 14.8941 50.724 14.092 49.9219C13.29 49.1198 12.8889 48.1399 12.8889 46.9822V7.14276C12.8889 5.98509 13.29 5.00521 14.092 4.20313C14.8941 3.40104 15.874 3 17.0317 3H38.5378C39.6955 3 40.6754 3.40104 41.4775 4.20313C42.2795 5.00521 42.6806 5.98509 42.6806 7.14276V46.9822C42.6806 48.1399 42.2795 49.1198 41.4775 49.9219C40.6754 50.724 39.6955 51.125 38.5378 51.125H17.0317ZM16.3264 40.2837V46.9822C16.3264 47.1587 16.3999 47.3203 16.547 47.4669C16.6937 47.614 16.8552 47.6875 17.0317 47.6875H38.5378C38.7143 47.6875 38.8758 47.614 39.0225 47.4669C39.1696 47.3203 39.2431 47.1587 39.2431 46.9822V40.2837H16.3264ZM27.7847 46.0129C28.3458 46.0129 28.824 45.8152 29.2193 45.4199C29.6143 45.025 29.8117 44.5468 29.8117 43.9853C29.8117 43.4242 29.6143 42.9462 29.2193 42.5513C28.824 42.156 28.3458 41.9583 27.7847 41.9583C27.2237 41.9583 26.7455 42.156 26.3502 42.5513C25.9552 42.9462 25.7578 43.4242 25.7578 43.9853C25.7578 44.5468 25.9552 45.025 26.3502 45.4199C26.7455 45.8152 27.2237 46.0129 27.7847 46.0129ZM16.3264 36.8462H39.2431V12.7396H16.3264V36.8462ZM16.3264 9.30208H39.2431V7.14276C39.2431 6.9663 39.1696 6.80474 39.0225 6.65807C38.8758 6.51102 38.7143 6.4375 38.5378 6.4375H17.0317C16.8552 6.4375 16.6937 6.51102 16.547 6.65807C16.3999 6.80474 16.3264 6.9663 16.3264 7.14276V9.30208Z" fill="#FFB0B8"/>
</svg>
