<svg width="55" height="55" viewBox="0 0 55 55" fill="none" xmlns="http://www.w3.org/2000/svg">
<path d="M21.7708 31.1574V23.8424C21.7708 23.2554 21.9694 22.7634 22.3667 22.3666C22.7635 21.9694 23.2554 21.7708 23.8425 21.7708H31.1575C31.7445 21.7708 32.2365 21.9694 32.6333 22.3666C33.0305 22.7634 33.2292 23.2554 33.2292 23.8424V31.1574C33.2292 31.7445 33.0305 32.2364 32.6333 32.6333C32.2365 33.0305 31.7445 33.2291 31.1575 33.2291H23.8425C23.2554 33.2291 22.7635 33.0305 22.3667 32.6333C21.9694 32.2364 21.7708 31.7445 21.7708 31.1574ZM25.2083 29.7916H29.7917V25.2083H25.2083V29.7916ZM21.1979 44.7315V42.3958H16.7469C15.5892 42.3958 14.6094 41.9947 13.8073 41.1926C13.0052 40.3906 12.6042 39.4107 12.6042 38.253V33.802H10.2684C9.78139 33.802 9.37329 33.6372 9.04405 33.3076C8.71443 32.978 8.54962 32.5697 8.54962 32.0827C8.54962 31.5953 8.71443 31.1872 9.04405 30.8584C9.37329 30.5291 9.78139 30.3645 10.2684 30.3645H12.6042V24.6353H10.2684C9.78139 24.6353 9.37329 24.4705 9.04405 24.1409C8.71443 23.8113 8.54962 23.403 8.54962 22.916C8.54962 22.4287 8.71443 22.0206 9.04405 21.6917C9.37329 21.3625 9.78139 21.1978 10.2684 21.1978H12.6042V16.7469C12.6042 15.5892 13.0052 14.6093 13.8073 13.8072C14.6094 13.0051 15.5892 12.6041 16.7469 12.6041H21.1979V10.2683C21.1979 9.78133 21.3627 9.37322 21.6923 9.04399C22.0219 8.71437 22.4302 8.54956 22.9172 8.54956C23.4046 8.54956 23.8127 8.71437 24.1416 9.04399C24.4708 9.37322 24.6354 9.78133 24.6354 10.2683V12.6041H30.3646V10.2683C30.3646 9.78133 30.5294 9.37322 30.859 9.04399C31.1886 8.71437 31.5969 8.54956 32.0839 8.54956C32.5713 8.54956 32.9794 8.71437 33.3082 9.04399C33.6375 9.37322 33.8021 9.78133 33.8021 10.2683V12.6041H38.2531C39.4107 12.6041 40.3906 13.0051 41.1927 13.8072C41.9948 14.6093 42.3958 15.5892 42.3958 16.7469V21.1978H44.7316C45.2186 21.1978 45.6267 21.3627 45.9559 21.6923C46.2855 22.0219 46.4504 22.4302 46.4504 22.9172C46.4504 23.4045 46.2855 23.8126 45.9559 24.1415C45.6267 24.4707 45.2186 24.6353 44.7316 24.6353H42.3958V30.3645H44.7316C45.2186 30.3645 45.6267 30.5293 45.9559 30.8589C46.2855 31.1886 46.4504 31.5969 46.4504 32.0838C46.4504 32.5712 46.2855 32.9793 45.9559 33.3082C45.6267 33.6374 45.2186 33.802 44.7316 33.802H42.3958V38.253C42.3958 39.4107 41.9948 40.3906 41.1927 41.1926C40.3906 41.9947 39.4107 42.3958 38.2531 42.3958H33.8021V44.7315C33.8021 45.2185 33.6373 45.6266 33.3076 45.9559C32.978 46.2855 32.5697 46.4503 32.0827 46.4503C31.5954 46.4503 31.1873 46.2855 30.8584 45.9559C30.5292 45.6266 30.3646 45.2185 30.3646 44.7315V42.3958H24.6354V44.7315C24.6354 45.2185 24.4706 45.6266 24.141 45.9559C23.8114 46.2855 23.4031 46.4503 22.9161 46.4503C22.4287 46.4503 22.0206 46.2855 21.6918 45.9559C21.3625 45.6266 21.1979 45.2185 21.1979 44.7315ZM38.2531 38.9583C38.4295 38.9583 38.5911 38.8847 38.7378 38.7377C38.8848 38.591 38.9583 38.4295 38.9583 38.253V16.7469C38.9583 16.5704 38.8848 16.4088 38.7378 16.2622C38.5911 16.1151 38.4295 16.0416 38.2531 16.0416H16.7469C16.5705 16.0416 16.4089 16.1151 16.2622 16.2622C16.1152 16.4088 16.0417 16.5704 16.0417 16.7469V38.253C16.0417 38.4295 16.1152 38.591 16.2622 38.7377C16.4089 38.8847 16.5705 38.9583 16.7469 38.9583H38.2531Z" fill="#5F6368"/>
</svg>
