<svg width="55" height="55" viewBox="0 0 55 55" fill="none" xmlns="http://www.w3.org/2000/svg">
<path d="M5.72919 27.5001C5.72919 24.4915 6.30134 21.663 7.44565 19.0146C8.58995 16.3658 10.142 14.0616 12.1017 12.1018C14.0615 10.142 16.3658 8.59001 19.0146 7.44571C21.663 6.3014 24.4914 5.72925 27.5 5.72925C32.4389 5.72925 36.7902 7.17987 40.5539 10.0811C44.3172 12.9828 46.86 16.6781 48.1823 21.1671C48.3614 21.6842 48.3527 22.1903 48.156 22.6853C47.9589 23.1807 47.6092 23.4988 47.1069 23.6398C46.628 23.757 46.1888 23.6814 45.7892 23.4129C45.3897 23.144 45.1121 22.7701 44.9562 22.2911C44.216 19.632 42.9352 17.2661 41.1137 15.1933C39.2918 13.1204 37.0456 11.5552 34.375 10.4976V11.4584C34.375 12.7188 33.9262 13.7978 33.0287 14.6954C32.1311 15.593 31.0521 16.0417 29.7917 16.0417H25.2084V20.6251C25.2084 21.2744 24.9887 21.8187 24.5495 22.2579C24.1103 22.6971 23.566 22.9167 22.9167 22.9167H18.3334V27.5001H20.6691C21.2596 27.5001 21.7525 27.6977 22.1478 28.0931C22.5428 28.488 22.7402 28.9807 22.7402 29.5712V34.3751H20.625L9.62502 23.3751C9.51044 24.0626 9.4054 24.7501 9.30992 25.4376C9.21443 26.1251 9.16669 26.8126 9.16669 27.5001C9.16669 32.248 10.7518 36.3707 13.9219 39.8682C17.092 43.3661 21.0658 45.331 25.8431 45.7629C26.3221 45.8099 26.718 45.998 27.0308 46.3273C27.3436 46.6561 27.5 47.0644 27.5 47.5522C27.5 48.0399 27.3281 48.4482 26.9844 48.7771C26.6406 49.1063 26.2293 49.2474 25.7503 49.2004C20.1125 48.7448 15.366 46.4508 11.5111 42.3186C7.65648 38.1863 5.72919 33.2468 5.72919 27.5001ZM47.0588 47.1821L40.6462 40.8135C39.9029 41.2867 39.1023 41.6687 38.2445 41.9594C37.3867 42.2504 36.4788 42.3959 35.5209 42.3959C32.9649 42.3959 30.7981 41.5071 29.0205 39.7296C27.243 37.952 26.3542 35.7852 26.3542 33.2292C26.3542 30.6733 27.243 28.5065 29.0205 26.7289C30.7981 24.9514 32.9649 24.0626 35.5209 24.0626C38.0768 24.0626 40.2436 24.9514 42.0212 26.7289C43.7987 28.5065 44.6875 30.6733 44.6875 33.2292C44.6875 34.2017 44.5384 35.1206 44.2401 35.9861C43.9418 36.8512 43.5488 37.6554 43.061 38.3987L49.4737 44.7672C49.8056 45.0842 49.9715 45.483 49.9715 45.9635C49.9715 46.444 49.8056 46.8501 49.4737 47.1821C49.1563 47.4995 48.7573 47.6581 48.2768 47.6581C47.7967 47.6581 47.3907 47.4995 47.0588 47.1821ZM35.5209 38.9584C37.125 38.9584 38.4809 38.4046 39.5886 37.297C40.6962 36.1893 41.25 34.8334 41.25 33.2292C41.25 31.6251 40.6962 30.2692 39.5886 29.1615C38.4809 28.0539 37.125 27.5001 35.5209 27.5001C33.9167 27.5001 32.5608 28.0539 31.4531 29.1615C30.3455 30.2692 29.7917 31.6251 29.7917 33.2292C29.7917 34.8334 30.3455 36.1893 31.4531 37.297C32.5608 38.4046 33.9167 38.9584 35.5209 38.9584Z" fill="#5F6368"/>
</svg>
