<svg width="55" height="55" viewBox="0 0 55 55" fill="none" xmlns="http://www.w3.org/2000/svg">
<path d="M6.93686 39.5531C6.58127 39.1979 6.41303 38.7896 6.43212 38.3282C6.45122 37.8668 6.61947 37.4776 6.93686 37.1606L18.4966 25.4508C19.2868 24.6456 20.2652 24.2431 21.4317 24.2431C22.5977 24.2431 23.5833 24.6456 24.3885 25.4508L30.1131 31.2109C30.2456 31.343 30.4074 31.4091 30.5983 31.4091C30.7893 31.4091 30.9581 31.343 31.1048 31.2109L43.4626 18.99H38.3854C37.8977 18.99 37.4894 18.8256 37.1605 18.4967C36.8313 18.1675 36.6667 17.759 36.6667 17.2712C36.6667 16.7835 36.8313 16.3752 37.1605 16.0463C37.4894 15.7171 37.8977 15.5525 38.3854 15.5525H47.1992C47.79 15.5525 48.2829 15.7501 48.6779 16.1455C49.0732 16.5408 49.2708 17.0337 49.2708 17.6242V26.4379C49.2708 26.9256 49.1062 27.3341 48.777 27.6634C48.4481 27.9922 48.0398 28.1567 47.5521 28.1567C47.0643 28.1567 46.656 27.9959 46.3272 27.6743C45.9979 27.3527 45.8333 26.948 45.8333 26.4602V21.4048L33.5334 33.7054C32.7427 34.4956 31.7644 34.8907 30.5983 34.8907C29.4319 34.8907 28.4535 34.4956 27.6633 33.7054L21.9381 27.9802C21.806 27.848 21.6371 27.782 21.4317 27.782C21.2258 27.782 21.0568 27.848 20.9246 27.9802L9.35171 39.5531C9.0198 39.8854 8.61723 40.0516 8.144 40.0516C7.67115 40.0516 7.26877 39.8854 6.93686 39.5531Z" fill="#5F6368"/>
</svg>
