<svg width="20" height="16" viewBox="0 0 20 16" fill="none" xmlns="http://www.w3.org/2000/svg">
<path d="M1.67209 6.82385C7.43242 4.28973 14.8868 1.2001 15.9157 0.772479C18.6148 -0.346771 19.443 -0.132271 19.0301 2.3464C18.7335 4.12794 17.8778 10.0262 17.1958 13.6975C16.7911 15.8746 15.8832 16.1326 14.4555 15.1907C13.7689 14.7374 10.3034 12.4458 9.5513 11.9077C8.86471 11.4173 7.9178 10.8274 9.10534 9.66552C9.52792 9.25165 12.2981 6.6066 14.4564 4.54777C14.7392 4.27735 14.384 3.83323 14.0576 4.05002C11.1486 5.97914 7.11525 8.65673 6.60192 9.00552C5.82642 9.53215 5.08163 9.77369 3.74467 9.3896C2.7345 9.09948 1.74771 8.75344 1.36363 8.62144C-0.115412 8.1136 0.235671 7.45589 1.67209 6.82385Z" fill="#333333"/>
</svg>
