<svg width="17" height="12" viewBox="0 0 17 12" fill="none" xmlns="http://www.w3.org/2000/svg">
<path d="M0.33518 10.2378C2.11723 10.3768 3.723 9.9875 5.18454 9.03644C3.65569 8.91964 2.63326 8.25779 2.06274 7.01752C2.56274 7.07036 3.03069 7.08426 3.52749 6.96747C1.88005 6.52253 1.00185 5.58815 0.883257 4.08092C1.37685 4.28114 1.84159 4.42574 2.38967 4.43131C1.4121 3.79448 0.912103 2.96856 0.931334 1.92851C0.940949 1.4502 1.08839 0.999702 1.38005 0.574227C3.19095 2.41239 5.46338 3.43019 8.26146 3.59982C8.24544 3.49415 8.23582 3.41072 8.223 3.32452C7.99223 1.78391 9.14608 0.382347 10.9089 0.0903545C12.0147 -0.0931835 12.9922 0.159877 13.8192 0.821726C13.9474 0.921837 14.0563 0.944084 14.2166 0.907933C14.8608 0.766108 15.473 0.560323 16.0659 0.282235C15.8384 0.932961 15.3704 1.4224 14.7358 1.83397C14.8801 1.81172 15.0275 1.79503 15.1717 1.77C15.3224 1.7422 15.473 1.71161 15.6236 1.67546C15.7679 1.64208 15.9089 1.60315 16.0499 1.56144C16.1942 1.51973 16.3384 1.47245 16.5083 1.44742C16.4249 1.54753 16.3448 1.65321 16.2551 1.75054C15.8833 2.15933 15.4538 2.51806 14.9826 2.83786C14.9345 2.87123 14.8929 2.94354 14.8961 2.99359C14.9217 3.9808 14.7615 4.94299 14.3929 5.87736C13.6685 7.7183 12.4057 9.20885 10.5115 10.2739C9.57556 10.7995 8.55313 11.1443 7.46018 11.3446C6.37685 11.542 5.2871 11.5782 4.19415 11.4669C3.098 11.3557 2.05633 11.0748 1.07556 10.6354C0.815949 10.5214 0.565949 10.3935 0.312744 10.2711C0.32236 10.26 0.32877 10.2489 0.33518 10.2378Z" fill="#333333"/>
</svg>
